<svg width="512" height="512" viewBox="0 0 512 512" fill="none" xmlns="http://www.w3.org/2000/svg">
<g clip-path="url(#clip0_23_51)">
<g filter="url(#filter0_d_23_51)">
<path d="M364 40H148C88.3532 40 40 88.3532 40 148V364C40 423.647 88.3532 472 148 472H364C423.647 472 472 423.647 472 364V148C472 88.3532 423.647 40 364 40Z" fill="url(#paint0_linear_23_51)"/>
<path d="M362 60H150C100.294 60 60 100.294 60 150V362C60 411.706 100.294 452 150 452H362C411.706 452 452 411.706 452 362V150C452 100.294 411.706 60 362 60Z" fill="url(#paint1_linear_23_51)" stroke="#94A3B8" stroke-opacity="0.18"/>
<rect x="341.893" y="330" width="81.4715" height="37.4155" rx="18.7077" transform="rotate(45.9527 341.893 330)" fill="url(#paint2_linear_23_51)"/>
<g filter="url(#filter1_d_23_51)">
<path d="M404 246C404 327.738 337.738 394 256 394C174.262 394 108 327.738 108 246C108 164.262 174.262 98 256 98C337.738 98 404 164.262 404 246ZM140.773 246C140.773 309.638 192.362 361.227 256 361.227C319.638 361.227 371.227 309.638 371.227 246C371.227 182.362 319.638 130.773 256 130.773C192.362 130.773 140.773 182.362 140.773 246Z" fill="url(#paint3_linear_23_51)"/>
</g>
<g filter="url(#filter2_d_23_51)">
<rect x="186" y="191" width="50.3597" height="46.878" rx="10" fill="url(#paint4_linear_23_51)"/>
<rect x="245.928" y="191" width="50.3597" height="46.878" rx="10" fill="url(#paint5_linear_23_51)"/>
<rect x="186" y="247.254" width="50.3597" height="46.878" rx="10" fill="url(#paint6_linear_23_51)"/>
<rect x="245.928" y="247.254" width="80.0719" height="74.5359" rx="10" fill="url(#paint7_linear_23_51)"/>
</g>
</g>
</g>
<defs>
<filter id="filter0_d_23_51" x="16" y="30" width="480" height="480" filterUnits="userSpaceOnUse" color-interpolation-filters="sRGB">
<feFlood flood-opacity="0" result="BackgroundImageFix"/>
<feColorMatrix in="SourceAlpha" type="matrix" values="0 0 0 0 0 0 0 0 0 0 0 0 0 0 0 0 0 0 127 0" result="hardAlpha"/>
<feOffset dy="14"/>
<feGaussianBlur stdDeviation="12"/>
<feComposite in2="hardAlpha" operator="out"/>
<feColorMatrix type="matrix" values="0 0 0 0 0.0196 0 0 0 0 0.0471 0 0 0 0 0.102 0 0 0 0.42 0"/>
<feBlend mode="normal" in2="BackgroundImageFix" result="effect1_dropShadow_23_51"/>
<feBlend mode="normal" in="SourceGraphic" in2="effect1_dropShadow_23_51" result="shape"/>
</filter>
<filter id="filter1_d_23_51" x="104" y="98" width="304" height="304" filterUnits="userSpaceOnUse" color-interpolation-filters="sRGB">
<feFlood flood-opacity="0" result="BackgroundImageFix"/>
<feColorMatrix in="SourceAlpha" type="matrix" values="0 0 0 0 0 0 0 0 0 0 0 0 0 0 0 0 0 0 127 0" result="hardAlpha"/>
<feOffset dy="4"/>
<feGaussianBlur stdDeviation="2"/>
<feComposite in2="hardAlpha" operator="out"/>
<feColorMatrix type="matrix" values="0 0 0 0 0 0 0 0 0 0 0 0 0 0 0 0 0 0 0.25 0"/>
<feBlend mode="normal" in2="BackgroundImageFix" result="effect1_dropShadow_23_51"/>
<feBlend mode="normal" in="SourceGraphic" in2="effect1_dropShadow_23_51" result="shape"/>
</filter>
<filter id="filter2_d_23_51" x="182" y="191" width="148" height="138.79" filterUnits="userSpaceOnUse" color-interpolation-filters="sRGB">
<feFlood flood-opacity="0" result="BackgroundImageFix"/>
<feColorMatrix in="SourceAlpha" type="matrix" values="0 0 0 0 0 0 0 0 0 0 0 0 0 0 0 0 0 0 127 0" result="hardAlpha"/>
<feOffset dy="4"/>
<feGaussianBlur stdDeviation="2"/>
<feComposite in2="hardAlpha" operator="out"/>
<feColorMatrix type="matrix" values="0 0 0 0 0 0 0 0 0 0 0 0 0 0 0 0 0 0 0.25 0"/>
<feBlend mode="normal" in2="BackgroundImageFix" result="effect1_dropShadow_23_51"/>
<feBlend mode="normal" in="SourceGraphic" in2="effect1_dropShadow_23_51" result="shape"/>
</filter>
<linearGradient id="paint0_linear_23_51" x1="64" y1="56" x2="448" y2="456" gradientUnits="userSpaceOnUse">
<stop stop-color="#0F172A"/>
<stop offset="0.55" stop-color="#1E293B"/>
<stop offset="1" stop-color="#0B1220"/>
</linearGradient>
<linearGradient id="paint1_linear_23_51" x1="128" y1="120" x2="380" y2="388" gradientUnits="userSpaceOnUse">
<stop stop-color="#38BDF8" stop-opacity="0.18"/>
<stop offset="1" stop-color="#F97316" stop-opacity="0.12"/>
</linearGradient>
<linearGradient id="paint2_linear_23_51" x1="382.629" y1="330" x2="382.629" y2="367.415" gradientUnits="userSpaceOnUse">
<stop stop-color="#7D6BE0"/>
<stop offset="1" stop-color="#6261D5"/>
</linearGradient>
<linearGradient id="paint3_linear_23_51" x1="256" y1="98" x2="256" y2="394" gradientUnits="userSpaceOnUse">
<stop stop-color="#7D6BE0"/>
<stop offset="1" stop-color="#6261D5"/>
</linearGradient>
<linearGradient id="paint4_linear_23_51" x1="191.576" y1="207.846" x2="234.154" y2="226.057" gradientUnits="userSpaceOnUse">
<stop stop-color="#6462D6"/>
<stop offset="0.764423" stop-color="#817CE6"/>
</linearGradient>
<linearGradient id="paint5_linear_23_51" x1="251.504" y1="207.846" x2="294.082" y2="226.057" gradientUnits="userSpaceOnUse">
<stop stop-color="#6462D6"/>
<stop offset="0.764423" stop-color="#817CE6"/>
</linearGradient>
<linearGradient id="paint6_linear_23_51" x1="191.576" y1="264.099" x2="234.154" y2="282.31" gradientUnits="userSpaceOnUse">
<stop stop-color="#6462D6"/>
<stop offset="0.764423" stop-color="#817CE6"/>
</linearGradient>
<linearGradient id="paint7_linear_23_51" x1="254.793" y1="274.039" x2="322.493" y2="302.993" gradientUnits="userSpaceOnUse">
<stop stop-color="#6462D6"/>
<stop offset="0.764423" stop-color="#817CE6"/>
</linearGradient>
<clipPath id="clip0_23_51">
<rect width="512" height="512" fill="white"/>
</clipPath>
</defs>
</svg>
